<?xml version="1.0" encoding="UTF-8"?>
<svg id="Layer_1" data-name="Layer 1" xmlns="http://www.w3.org/2000/svg" viewBox="0 0 505.11 192.99">
  <defs>
    <style>
      .cls-1 {
        font-family: BentonSansCond-Regular, BentonSansCond;
        font-size: 19.38px;
      }

      .cls-1, .cls-2 {
        fill: #231f20;
      }

      .cls-3 {
        letter-spacing: 0em;
      }

      .cls-4 {
        letter-spacing: 0em;
      }

      .cls-5 {
        fill: #fff;
      }

      .cls-6 {
        letter-spacing: 0em;
      }

      .cls-7 {
        letter-spacing: -.08em;
      }

      .cls-8 {
        letter-spacing: -.08em;
      }

      .cls-9 {
        letter-spacing: -.06em;
      }

      .cls-10 {
        letter-spacing: -.02em;
      }

      .cls-11 {
        letter-spacing: -.01em;
      }

      .cls-12 {
        letter-spacing: -.02em;
      }

      .cls-13 {
        letter-spacing: -.02em;
      }

      .cls-2 {
        font-family: BentonSansCond-Bold, BentonSansCond;
        font-size: 31.37px;
        font-weight: 700;
      }

      .cls-14 {
        letter-spacing: -.03em;
      }

      .cls-15 {
        letter-spacing: -.03em;
      }

      .cls-16 {
        letter-spacing: -.03em;
      }

      .cls-17 {
        letter-spacing: 0em;
      }

      .cls-18 {
        letter-spacing: 0em;
      }

      .cls-19 {
        letter-spacing: 0em;
      }

      .cls-20 {
        fill: #991b1e;
      }

      .cls-21 {
        letter-spacing: 0em;
      }

      .cls-22 {
        letter-spacing: 0em;
      }

      .cls-23 {
        letter-spacing: -.01em;
      }

      .cls-24 {
        letter-spacing: -.01em;
      }

      .cls-25 {
        letter-spacing: -.01em;
      }

      .cls-26 {
        letter-spacing: -.01em;
      }

      .cls-27 {
        letter-spacing: 0em;
      }

      .cls-28 {
        letter-spacing: -.01em;
      }

      .cls-29 {
        letter-spacing: -.01em;
      }

      .cls-30 {
        letter-spacing: -.01em;
      }

      .cls-31 {
        letter-spacing: 0em;
      }

      .cls-32 {
        letter-spacing: 0em;
      }

      .cls-33 {
        letter-spacing: 0em;
      }

      .cls-34 {
        letter-spacing: 0em;
      }

      .cls-35 {
        letter-spacing: 0em;
      }

      .cls-36 {
        letter-spacing: 0em;
      }

      .cls-37 {
        letter-spacing: 0em;
      }

      .cls-38 {
        letter-spacing: 0em;
      }

      .cls-39 {
        letter-spacing: 0em;
      }

      .cls-40 {
        letter-spacing: .02em;
      }

      .cls-41 {
        letter-spacing: .02em;
      }

      .cls-42 {
        letter-spacing: .02em;
      }

      .cls-43 {
        letter-spacing: .01em;
      }

      .cls-44 {
        letter-spacing: .01em;
      }

      .cls-45 {
        letter-spacing: .01em;
      }

      .cls-46 {
        letter-spacing: 0em;
      }

      .cls-47 {
        letter-spacing: 0em;
      }
    </style>
  </defs>
  <text class="cls-1" transform="translate(84.09 190.15)"><tspan class="cls-43" x="0" y="0">S</tspan><tspan class="cls-40" x="10.85" y="0">chool </tspan><tspan class="cls-44" x="59.04" y="0">o</tspan><tspan class="cls-42" x="68.87" y="0">f Glo</tspan><tspan class="cls-46" x="106.11" y="0">b</tspan><tspan class="cls-42" x="116.15" y="0">al and In</tspan><tspan class="cls-46" x="183.97" y="0">t</tspan><tspan class="cls-42" x="190.47" y="0">ernational Studi</tspan><tspan class="cls-44" x="319.17" y="0">e</tspan><tspan class="cls-41" x="328.51" y="0">s</tspan></text>
  <g>
    <rect class="cls-20" x="223.85" y="2.52" width="58.13" height="68.51"/>
    <polygon class="cls-5" points="259.51 19.05 259.51 22.67 262.01 22.67 262.01 42.79 256.72 42.79 256.72 16.29 259.53 16.29 259.53 12.67 246.35 12.67 246.35 16.29 249.16 16.29 249.16 42.79 243.81 42.79 243.81 22.67 246.31 22.67 246.31 19.05 233.9 19.05 233.9 22.67 236.7 22.67 236.7 45.97 241.27 50.63 249.16 50.63 249.16 56 246.36 56 246.36 60.66 259.53 60.66 259.53 56 256.72 56 256.72 50.63 264.55 50.63 269.12 45.97 269.12 22.67 271.92 22.67 271.92 19.05 259.51 19.05"/>
    <text class="cls-2" transform="translate(64.14 138.73)"><tspan class="cls-45" x="0" y="0">L</tspan><tspan class="cls-27" x="16.41" y="0">A</tspan><tspan class="cls-19" x="35" y="0">N</tspan><tspan class="cls-29" x="55.27" y="0">G</tspan><tspan class="cls-16" x="74.91" y="0">U</tspan><tspan class="cls-15" x="93.12" y="0">A</tspan><tspan class="cls-35" x="111" y="0">G</tspan><tspan class="cls-18" x="130.71" y="0">E</tspan><tspan x="147" y="0">S </tspan><tspan class="cls-27" x="172.48" y="0">AN</tspan><tspan class="cls-6" x="211.25" y="0">D </tspan><tspan class="cls-33" x="237.91" y="0">C</tspan><tspan class="cls-21" x="256.6" y="0">U</tspan><tspan class="cls-7" x="275.61" y="0">L</tspan><tspan class="cls-34" x="289.07" y="0">T</tspan><tspan class="cls-21" x="305.68" y="0">U</tspan><tspan class="cls-13" x="324.69" y="0">R</tspan><tspan class="cls-18" x="342.81" y="0">E</tspan><tspan x="359.1" y="0">S</tspan></text>
    <text class="cls-1" transform="translate(182.53 168.06)"><tspan class="cls-36" x="0" y="0">HA</tspan><tspan class="cls-32" x="22.63" y="0">M</tspan><tspan class="cls-28" x="36.68" y="0">I</tspan><tspan class="cls-8" x="41.28" y="0">L</tspan><tspan class="cls-14" x="49.06" y="0">T</tspan><tspan class="cls-22" x="58.57" y="0">O</tspan><tspan x="70.64" y="0">N </tspan><tspan class="cls-10" x="86.65" y="0">L</tspan><tspan class="cls-38" x="95.56" y="0">U</tspan><tspan class="cls-39" x="107.16" y="0">G</tspan><tspan class="cls-36" x="118.94" y="0">A</tspan><tspan class="cls-3" x="129.71" y="0">R</tspan></text>
    <text class="cls-2" transform="translate(16.41 103.84)"><tspan class="cls-34" x="0" y="0">D</tspan><tspan class="cls-12" x="19.4" y="0">E</tspan><tspan class="cls-9" x="35.41" y="0">P</tspan><tspan class="cls-27" x="51.54" y="0">A</tspan><tspan class="cls-24" x="70.14" y="0">RT</tspan><tspan class="cls-31" x="104.82" y="0">M</tspan><tspan class="cls-12" x="128.63" y="0">E</tspan><tspan class="cls-26" x="144.64" y="0">N</tspan><tspan x="164.68" y="0">T </tspan><tspan class="cls-17" x="188.55" y="0">O</tspan><tspan class="cls-4" x="208.81" y="0">F </tspan><tspan class="cls-30" x="231.33" y="0">M</tspan><tspan class="cls-23" x="255.03" y="0">I</tspan><tspan class="cls-34" x="263.59" y="0">DD</tspan><tspan class="cls-11" x="302.38" y="0">L</tspan><tspan class="cls-4" x="317.98" y="0">E </tspan><tspan class="cls-47" x="341.51" y="0">E</tspan><tspan class="cls-25" x="358.26" y="0">A</tspan><tspan class="cls-37" x="376.71" y="0">S</tspan><tspan class="cls-24" x="394.93" y="0">T</tspan><tspan class="cls-12" x="411.4" y="0">ER</tspan><tspan x="445.52" y="0">N </tspan></text>
  </g>
</svg>